<?xml version="1.0" encoding="utf-8"?>
<!-- Generator: Adobe Illustrator 23.0.4, SVG Export Plug-In . SVG Version: 6.00 Build 0)  -->
<svg version="1.1" id="Layer_1" xmlns="http://www.w3.org/2000/svg" xmlns:xlink="http://www.w3.org/1999/xlink" x="0px" y="0px"
	 viewBox="0 0 500 128.31" style="enable-background:new 0 0 500 128.31;" xml:space="preserve">
<style type="text/css">
	.st0{fill:#fff;}
	.st1{fill:#F9D62A;}
	.st2{fill:#5D9C5F;}
</style>
<path class="st0" d="M89.82,69.15c-0.5-0.5-0.75-1.14-0.75-1.91V3.25c0-0.77,0.25-1.41,0.75-1.91c0.5-0.5,1.14-0.76,1.91-0.76h42.69
	c0.71,0,1.33,0.25,1.86,0.76c0.53,0.5,0.8,1.14,0.8,1.91c0,0.71-0.27,1.33-0.8,1.86c-0.53,0.53-1.15,0.8-1.86,0.8H94.39v26.63h29.38
	c0.77,0,1.41,0.25,1.91,0.75c0.5,0.5,0.75,1.14,0.75,1.91c0,0.77-0.25,1.42-0.75,1.95c-0.5,0.53-1.14,0.8-1.91,0.8H94.39v29.29
	c0,0.77-0.25,1.41-0.75,1.91c-0.5,0.5-1.14,0.75-1.91,0.75C90.96,69.91,90.32,69.66,89.82,69.15z"/>
<path class="st0" d="M183.46,23.98c3.4,2.04,6.05,4.87,7.94,8.48c1.89,3.61,2.84,7.72,2.84,12.34c0,0.77-0.24,1.38-0.71,1.82
	s-1.09,0.67-1.86,0.67h-37.19c0.18,3.49,1.1,6.61,2.75,9.36c1.66,2.75,3.87,4.9,6.66,6.43c2.78,1.54,5.89,2.31,9.32,2.31
	c2.31,0,4.63-0.4,6.97-1.2c2.34-0.8,4.18-1.85,5.55-3.15c0.59-0.47,1.21-0.71,1.86-0.71c0.65,0,1.18,0.18,1.6,0.53
	c0.65,0.53,0.98,1.15,0.98,1.86c0,0.59-0.27,1.15-0.8,1.69c-1.89,1.72-4.36,3.14-7.41,4.26c-3.05,1.12-5.96,1.69-8.74,1.69
	c-4.67,0-8.83-1.05-12.47-3.15c-3.64-2.1-6.49-5.03-8.56-8.79c-2.07-3.76-3.11-8-3.11-12.74c0-4.79,0.96-9.07,2.88-12.82
	c1.92-3.76,4.61-6.69,8.08-8.79c3.46-2.1,7.41-3.15,11.85-3.15C176.19,20.92,180.05,21.94,183.46,23.98z M160.2,30.5
	c-3.17,3.08-5.05,7.13-5.64,12.16h34.53c-0.41-5.03-2.19-9.08-5.32-12.16c-3.14-3.08-7.1-4.62-11.89-4.62
	C167.26,25.89,163.37,27.42,160.2,30.5z"/>
<path class="st0" d="M252.91,1.3c0.47,0.47,0.71,1.12,0.71,1.95v42.69v0.18c-0.06,4.56-1.18,8.7-3.37,12.43
	c-2.19,3.73-5.16,6.64-8.92,8.74c-3.76,2.1-7.91,3.15-12.47,3.15c-4.67,0-8.91-1.08-12.69-3.24c-3.79-2.16-6.76-5.13-8.92-8.92
	c-2.16-3.78-3.24-8.02-3.24-12.69c0-4.61,1.08-8.81,3.24-12.6c2.16-3.79,5.13-6.76,8.92-8.92c3.79-2.16,8.02-3.24,12.69-3.24
	c4.2,0,8,0.9,11.4,2.71c3.4,1.81,6.08,4.27,8.03,7.41V3.25c0-0.83,0.25-1.48,0.75-1.95c0.5-0.47,1.14-0.71,1.91-0.71
	C251.78,0.59,252.43,0.83,252.91,1.3z M238.8,62.85c2.96-1.75,5.28-4.13,6.97-7.14c1.69-3.02,2.53-6.39,2.53-10.12
	c0-3.73-0.84-7.1-2.53-10.12c-1.69-3.02-4.01-5.38-6.97-7.1c-2.96-1.71-6.27-2.57-9.94-2.57c-3.67,0-6.98,0.86-9.94,2.57
	c-2.96,1.72-5.3,4.08-7.01,7.1c-1.72,3.02-2.57,6.39-2.57,10.12c0,3.73,0.86,7.1,2.57,10.12c1.71,3.02,4.05,5.4,7.01,7.14
	c2.96,1.75,6.27,2.62,9.94,2.62C232.52,65.47,235.84,64.6,238.8,62.85z"/>
<path class="st0" d="M278.74,68.62c-3.25-1.21-5.95-3.06-8.08-5.55c-0.41-0.47-0.62-1.01-0.62-1.6c0-0.83,0.38-1.51,1.15-2.04
	c0.35-0.29,0.86-0.44,1.51-0.44c0.83,0,1.51,0.33,2.04,0.98c2.96,3.61,7.72,5.41,14.29,5.41c4.67,0,8.12-0.83,10.34-2.49
	c2.22-1.66,3.33-3.79,3.33-6.39c0-4.67-4.53-7.66-13.58-8.97c-5.74-0.83-10.07-2.4-13-4.7c-2.93-2.31-4.39-5.09-4.39-8.34
	c0-4.32,1.58-7.68,4.75-10.07s7.29-3.59,12.38-3.59c7.45,0,13.11,2.66,16.95,7.99c0.36,0.41,0.53,0.92,0.53,1.51
	c0,0.83-0.48,1.51-1.42,2.04c-0.59,0.24-1.04,0.36-1.33,0.36c-0.89,0-1.63-0.38-2.22-1.15c-3.02-3.85-7.25-5.77-12.69-5.77
	c-3.61,0-6.48,0.79-8.61,2.35c-2.13,1.57-3.2,3.51-3.2,5.81c0,2.37,1.02,4.26,3.06,5.68c2.04,1.42,5.46,2.48,10.25,3.2
	c6.27,0.89,10.78,2.56,13.53,5.01c2.75,2.46,4.13,5.43,4.13,8.92c0,2.72-0.88,5.12-2.62,7.19c-1.75,2.07-4.07,3.67-6.97,4.79
	c-2.9,1.13-6.07,1.69-9.5,1.69C285.33,70.44,281.99,69.83,278.74,68.62z"/>
<path class="st0" d="M323.91,9.95c-0.77-0.8-1.15-1.79-1.15-2.97c0-1.3,0.41-2.31,1.24-3.02c0.83-0.71,1.8-1.06,2.93-1.06
	s2.09,0.36,2.89,1.06c0.8,0.71,1.2,1.72,1.2,3.02c0,1.18-0.4,2.17-1.2,2.97c-0.8,0.8-1.79,1.2-2.97,1.2S324.68,10.75,323.91,9.95z
	 M325.02,69.15c-0.5-0.5-0.75-1.14-0.75-1.91V24.02c0-0.83,0.25-1.48,0.75-1.95c0.5-0.47,1.14-0.71,1.91-0.71
	c0.83,0,1.48,0.24,1.95,0.71s0.71,1.12,0.71,1.95v43.22c0,0.77-0.24,1.41-0.71,1.91c-0.47,0.5-1.12,0.75-1.95,0.75
	C326.16,69.91,325.52,69.66,325.02,69.15z"/>
<path class="st0" d="M385.02,24.02c3.76,2.13,6.69,5.07,8.79,8.83c2.1,3.76,3.15,8.03,3.15,12.82v17.4c0,4.74-1.06,9.04-3.2,12.91
	c-2.13,3.87-5.06,6.92-8.79,9.14c-3.73,2.22-7.87,3.33-12.42,3.33c-4.68,0-8.77-0.87-12.29-2.62c-3.52-1.75-6.47-4.13-8.83-7.14
	c-0.47-0.59-0.71-1.18-0.71-1.78c0-0.71,0.3-1.27,0.89-1.69c0.47-0.35,1.01-0.53,1.6-0.53c0.95,0,1.71,0.38,2.31,1.15
	c1.95,2.37,4.36,4.23,7.23,5.59c2.87,1.36,6.14,2.04,9.81,2.04c3.61,0,6.86-0.89,9.76-2.66c2.9-1.78,5.18-4.22,6.83-7.32
	c1.66-3.11,2.48-6.58,2.48-10.43v-3.9c-1.72,3.49-4.27,6.24-7.68,8.25c-3.4,2.01-7.32,3.02-11.76,3.02c-4.79,0-9.07-1.05-12.82-3.15
	c-3.76-2.1-6.7-5.03-8.83-8.79c-2.13-3.76-3.2-8.03-3.2-12.82c0-4.73,1.09-8.99,3.28-12.78s5.18-6.75,8.96-8.88
	c3.79-2.13,7.99-3.2,12.6-3.2C376.99,20.83,381.26,21.89,385.02,24.02z M382.22,62.94c2.96-1.69,5.27-4.02,6.92-7.01
	c1.66-2.99,2.48-6.4,2.48-10.25c0-3.85-0.83-7.28-2.48-10.3c-1.66-3.02-3.96-5.37-6.92-7.06c-2.96-1.69-6.3-2.53-10.03-2.53
	c-3.79,0-7.16,0.84-10.12,2.53c-2.96,1.69-5.27,4.04-6.92,7.06c-1.66,3.02-2.48,6.45-2.48,10.3c0,3.85,0.83,7.26,2.48,10.25
	c1.66,2.99,3.96,5.33,6.92,7.01c2.96,1.69,6.33,2.53,10.12,2.53C375.92,65.47,379.26,64.63,382.22,62.94z"/>
<path class="st0" d="M446.7,23.4c3.4,1.78,6.06,4.37,7.99,7.77c1.92,3.4,2.89,7.47,2.89,12.2v23.88c0,0.77-0.25,1.41-0.76,1.91
	c-0.5,0.5-1.14,0.75-1.91,0.75c-0.77,0-1.41-0.25-1.91-0.75c-0.5-0.5-0.76-1.14-0.76-1.91V43.37c0-5.62-1.58-9.91-4.75-12.87
	c-3.17-2.96-7.29-4.44-12.38-4.44c-3.14,0-5.99,0.61-8.56,1.82c-2.57,1.21-4.6,2.9-6.08,5.06c-1.48,2.16-2.22,4.54-2.22,7.14v27.16
	c0,0.77-0.24,1.41-0.71,1.91c-0.47,0.5-1.12,0.75-1.95,0.75c-0.77,0-1.41-0.25-1.91-0.75c-0.5-0.5-0.76-1.14-0.76-1.91V3.25
	c0-0.83,0.25-1.48,0.76-1.95c0.5-0.47,1.14-0.71,1.91-0.71c0.83,0,1.48,0.24,1.95,0.71c0.47,0.47,0.71,1.12,0.71,1.95v25.38
	c2.01-2.48,4.47-4.42,7.37-5.81c2.9-1.39,6.06-2.09,9.5-2.09C439.44,20.74,443.3,21.63,446.7,23.4z"/>
<path class="st0" d="M499.24,65.25c0.5,0.5,0.76,1.17,0.76,2c0,0.77-0.25,1.41-0.76,1.91c-0.5,0.5-1.17,0.75-2,0.75h-2.04
	c-3.26,0-6.16-0.74-8.7-2.22c-2.54-1.48-4.53-3.51-5.95-6.08c-1.42-2.57-2.13-5.49-2.13-8.74V27.93h-6.92
	c-0.71,0-1.29-0.22-1.73-0.67c-0.44-0.44-0.67-1.02-0.67-1.73s0.22-1.29,0.67-1.73c0.44-0.44,1.02-0.67,1.73-0.67h6.92V8.67
	c0-0.83,0.25-1.49,0.75-2s1.14-0.75,1.91-0.75c0.83,0,1.49,0.25,2,0.75c0.5,0.5,0.76,1.17,0.76,2v14.47h11.72
	c0.71,0,1.29,0.22,1.73,0.67c0.44,0.44,0.66,1.02,0.66,1.73s-0.22,1.29-0.66,1.73c-0.44,0.44-1.02,0.67-1.73,0.67h-11.72v24.94
	c0,3.43,1.06,6.23,3.19,8.39c2.13,2.16,4.88,3.24,8.25,3.24h1.95C498.08,64.49,498.74,64.75,499.24,65.25z"/>
<g>
	<path class="st0" d="M276.45,126.33c-1.96-1.19-3.52-2.79-4.68-4.81c-1.16-2.02-1.73-4.19-1.73-6.53c0-2.33,0.57-4.5,1.72-6.51
		c1.15-2.01,2.69-3.6,4.65-4.79c1.95-1.19,4.1-1.78,6.43-1.78c3.05,0,5.75,0.97,8.08,2.91c0.2,0.15,0.29,0.37,0.29,0.65
		c0,0.26-0.09,0.5-0.26,0.7c-0.17,0.21-0.41,0.31-0.72,0.31c-0.24,0-0.51-0.13-0.82-0.39c-1.66-1.48-3.85-2.23-6.58-2.23
		c-1.92,0-3.71,0.51-5.38,1.54c-1.67,1.03-2.99,2.39-3.98,4.11c-0.98,1.71-1.47,3.54-1.47,5.48c0,2.01,0.49,3.87,1.46,5.58
		c0.97,1.71,2.29,3.07,3.96,4.07c1.67,1,3.47,1.51,5.42,1.51c2.57,0,4.83-0.8,6.77-2.39c0.15-0.11,0.32-0.16,0.49-0.16
		c0.26,0,0.5,0.1,0.7,0.29c0.21,0.2,0.31,0.44,0.31,0.72c0,0.28-0.08,0.51-0.23,0.69c-1.88,1.88-4.56,2.81-8.05,2.81
		C280.54,128.12,278.41,127.52,276.45,126.33z"/>
	<path class="st0" d="M302.22,126.4c-2-1.15-3.57-2.72-4.71-4.71c-1.15-2-1.72-4.23-1.72-6.69c0-2.44,0.57-4.66,1.72-6.66
		c1.15-2,2.72-3.57,4.71-4.71c2-1.15,4.23-1.72,6.69-1.72c2.44,0,4.66,0.57,6.66,1.72c2,1.15,3.57,2.72,4.71,4.71
		c1.15,2,1.72,4.22,1.72,6.66c0,2.47-0.57,4.7-1.72,6.69c-1.15,2-2.72,3.57-4.71,4.71c-2,1.15-4.22,1.72-6.66,1.72
		C306.44,128.12,304.21,127.54,302.22,126.4z M314.57,124.7c1.7-0.97,3.04-2.31,4.01-4.01c0.97-1.7,1.46-3.6,1.46-5.69
		c0-2.07-0.49-3.96-1.46-5.66c-0.97-1.7-2.31-3.04-4.01-4.01c-1.7-0.97-3.59-1.46-5.66-1.46c-2.09,0-3.99,0.49-5.69,1.46
		c-1.7,0.97-3.04,2.31-4.01,4.01c-0.97,1.7-1.46,3.59-1.46,5.66c0,2.09,0.49,3.99,1.46,5.69c0.97,1.7,2.31,3.04,4.01,4.01
		c1.7,0.97,3.6,1.46,5.69,1.46C310.98,126.15,312.87,125.67,314.57,124.7z"/>
	<path class="st0" d="M328.17,127.51c-0.19-0.19-0.28-0.42-0.28-0.7v-23.59c0-0.28,0.09-0.52,0.28-0.7c0.19-0.19,0.42-0.28,0.7-0.28
		c0.31,0,0.56,0.11,0.75,0.33l16.62,21.63v-20.97c0-0.28,0.09-0.52,0.28-0.7c0.19-0.19,0.42-0.28,0.7-0.28
		c0.26,0,0.49,0.09,0.69,0.28c0.2,0.19,0.29,0.42,0.29,0.7v23.59c0,0.28-0.1,0.52-0.29,0.7c-0.2,0.19-0.43,0.28-0.69,0.28
		c-0.31,0-0.55-0.1-0.72-0.29l-16.65-21.66v20.97c0,0.28-0.09,0.52-0.28,0.7c-0.19,0.19-0.42,0.28-0.7,0.28
		C328.59,127.79,328.35,127.7,328.17,127.51z"/>
	<path class="st0" d="M357.73,126.86c-1.51-0.84-2.63-1.99-3.37-3.45c-0.07-0.13-0.1-0.26-0.1-0.39c0-0.26,0.09-0.48,0.28-0.65
		c0.19-0.17,0.43-0.26,0.74-0.26c0.44,0,0.75,0.21,0.95,0.62c0.59,1.09,1.47,1.94,2.63,2.54c1.17,0.6,2.57,0.9,4.2,0.9
		c1.88,0,3.35-0.47,4.43-1.41c1.08-0.94,1.62-2.27,1.62-3.99c0-1.48-0.53-2.71-1.59-3.68c-1.06-0.97-2.62-1.6-4.7-1.88
		c-2.42-0.35-4.32-1.14-5.71-2.37c-1.39-1.23-2.08-2.73-2.08-4.5c0-1.26,0.32-2.38,0.97-3.35c0.64-0.97,1.55-1.72,2.72-2.26
		c1.17-0.53,2.51-0.8,4.04-0.8c1.59,0,3.05,0.38,4.38,1.15c1.33,0.76,2.31,1.68,2.94,2.75c0.09,0.15,0.13,0.33,0.13,0.52
		c0,0.18-0.05,0.33-0.15,0.47c-0.1,0.14-0.23,0.26-0.41,0.34c-0.09,0.04-0.22,0.07-0.39,0.07c-0.39,0-0.7-0.16-0.92-0.49
		c-1.29-1.9-3.15-2.85-5.6-2.85c-1.81,0-3.22,0.41-4.24,1.23s-1.52,1.96-1.52,3.42c0,1.22,0.5,2.25,1.51,3.08
		c1,0.83,2.55,1.42,4.65,1.77c2.75,0.46,4.76,1.3,6.02,2.54c1.27,1.23,1.9,2.85,1.9,4.86c0,1.51-0.33,2.81-1,3.93
		c-0.67,1.11-1.6,1.96-2.81,2.55c-1.21,0.59-2.61,0.88-4.2,0.88C361.01,128.12,359.23,127.7,357.73,126.86z"/>
	<path class="st0" d="M381.86,127.18c-1.49-0.75-2.66-1.8-3.48-3.14c-0.83-1.34-1.24-2.87-1.24-4.6v-16.23
		c0-0.31,0.09-0.55,0.28-0.72c0.19-0.17,0.42-0.26,0.7-0.26c0.31,0,0.55,0.09,0.72,0.26c0.17,0.17,0.26,0.41,0.26,0.72v16.23
		c0,1.33,0.33,2.52,1,3.57c0.67,1.05,1.59,1.87,2.78,2.45c1.19,0.59,2.55,0.88,4.07,0.88c1.53,0,2.88-0.29,4.07-0.88
		c1.19-0.59,2.12-1.41,2.8-2.45c0.68-1.05,1.01-2.24,1.01-3.57v-16.23c0-0.31,0.09-0.55,0.28-0.72c0.19-0.17,0.42-0.26,0.7-0.26
		c0.31,0,0.55,0.09,0.72,0.26c0.17,0.17,0.26,0.41,0.26,0.72v16.23c0,1.72-0.42,3.26-1.26,4.6c-0.84,1.34-2.01,2.39-3.5,3.14
		c-1.49,0.75-3.19,1.13-5.09,1.13C385.05,128.31,383.36,127.94,381.86,127.18z"/>
	<path class="st0" d="M404.29,127.51c-0.2-0.19-0.29-0.42-0.29-0.7v-23.59c0-0.28,0.1-0.52,0.29-0.7c0.2-0.19,0.43-0.28,0.69-0.28
		c0.28,0,0.52,0.09,0.7,0.28c0.19,0.19,0.28,0.42,0.28,0.7v22.81h13.45c0.28,0,0.52,0.08,0.7,0.25c0.19,0.16,0.28,0.38,0.28,0.64
		c0,0.26-0.09,0.47-0.28,0.64c-0.19,0.16-0.42,0.25-0.7,0.25h-14.43C404.72,127.79,404.49,127.7,404.29,127.51z"/>
	<path class="st0" d="M438.8,102.48c0.16,0.16,0.25,0.38,0.25,0.64c0,0.26-0.08,0.47-0.25,0.64c-0.16,0.16-0.38,0.25-0.64,0.25
		h-8.28v22.81c0,0.28-0.09,0.52-0.28,0.7c-0.19,0.19-0.42,0.28-0.7,0.28c-0.28,0-0.52-0.09-0.7-0.28c-0.19-0.19-0.28-0.42-0.28-0.7
		V104h-8.28c-0.26,0-0.47-0.08-0.64-0.25c-0.16-0.16-0.25-0.38-0.25-0.64c0-0.26,0.08-0.47,0.25-0.64c0.16-0.16,0.38-0.25,0.64-0.25
		h18.52C438.42,102.24,438.63,102.32,438.8,102.48z"/>
	<path class="st0" d="M443.74,127.51c-0.19-0.19-0.28-0.42-0.28-0.7v-23.59c0-0.28,0.09-0.52,0.28-0.7c0.19-0.19,0.42-0.28,0.7-0.28
		c0.28,0,0.52,0.09,0.7,0.28c0.19,0.19,0.28,0.42,0.28,0.7v23.59c0,0.28-0.09,0.52-0.28,0.7c-0.19,0.19-0.42,0.28-0.7,0.28
		C444.16,127.79,443.92,127.7,443.74,127.51z"/>
	<path class="st0" d="M452.9,127.51c-0.19-0.19-0.28-0.42-0.28-0.7v-23.59c0-0.28,0.09-0.52,0.28-0.7c0.19-0.19,0.42-0.28,0.7-0.28
		c0.31,0,0.56,0.11,0.75,0.33l16.62,21.63v-20.97c0-0.28,0.09-0.52,0.28-0.7c0.19-0.19,0.42-0.28,0.7-0.28
		c0.26,0,0.49,0.09,0.69,0.28c0.2,0.19,0.29,0.42,0.29,0.7v23.59c0,0.28-0.1,0.52-0.29,0.7c-0.2,0.19-0.43,0.28-0.69,0.28
		c-0.31,0-0.55-0.1-0.72-0.29l-16.65-21.66v20.97c0,0.28-0.09,0.52-0.28,0.7c-0.19,0.19-0.42,0.28-0.7,0.28
		C453.32,127.79,453.08,127.7,452.9,127.51z"/>
	<path class="st0" d="M499.62,115.62c0.19,0.18,0.28,0.4,0.28,0.69v8.31c0,0.15-0.01,0.28-0.03,0.38c-0.02,0.1-0.09,0.2-0.2,0.31
		c-1.88,1.88-4.56,2.81-8.05,2.81c-2.29,0-4.42-0.59-6.38-1.78c-1.96-1.19-3.52-2.79-4.68-4.81c-1.16-2.02-1.73-4.19-1.73-6.53
		c0-2.33,0.57-4.5,1.72-6.51c1.15-2.01,2.69-3.6,4.65-4.79c1.95-1.19,4.1-1.78,6.43-1.78c3.05,0,5.75,0.97,8.08,2.91
		c0.2,0.15,0.29,0.37,0.29,0.65c0,0.26-0.09,0.5-0.26,0.7c-0.17,0.21-0.41,0.31-0.72,0.31c-0.24,0-0.51-0.13-0.82-0.39
		c-1.66-1.48-3.85-2.23-6.58-2.23c-1.92,0-3.71,0.51-5.38,1.54c-1.67,1.03-2.99,2.39-3.98,4.11c-0.98,1.71-1.47,3.54-1.47,5.48
		c0,2.01,0.49,3.87,1.46,5.58c0.97,1.71,2.29,3.07,3.96,4.07c1.67,1,3.47,1.51,5.42,1.51c2.38,0,4.48-0.68,6.32-2.03v-7h-5.5
		c-0.28,0-0.52-0.09-0.7-0.26c-0.19-0.17-0.28-0.39-0.28-0.65c0-0.24,0.09-0.44,0.28-0.61c0.19-0.16,0.42-0.25,0.7-0.25h6.48
		C499.2,115.36,499.44,115.44,499.62,115.62z"/>
</g>
<path class="st1" d="M26.75,0.32c5.23,0,10.61,0,16.21,0c0,5.55,0,11.03,0,16.19C37.67,11.23,32.22,5.78,26.75,0.32z"/>
<path class="st2" d="M43.07,26.86c0,5.59,0,11.04,0,16.31C37.72,37.7,32.29,32.16,27.1,26.86C31.95,26.86,37.44,26.86,43.07,26.86z"
	/>
<path class="st2" d="M0.35,26.7c4.81,0,9.87-0.03,14.93,0.05c0.47,0.01,1.33,0.74,1.33,1.14c0.09,5.13,0.06,10.27,0.06,15.14
	C11.27,37.62,5.84,32.19,0.35,26.7z"/>
<path class="st1" d="M0.6,0.26c4.53,0,9.52-0.04,14.51,0.06c0.5,0.01,1.4,0.84,1.41,1.3c0.1,4.97,0.06,9.95,0.06,14.62
	C11.23,10.89,5.86,5.52,0.6,0.26z"/>
<path class="st1" d="M69.35,16.49c-5.42-5.4-10.76-10.73-16.18-16.14c5.29,0,10.61,0,16.18,0C69.35,5.7,69.35,11.13,69.35,16.49z"/>
<path class="st0" d="M16.57,69.9c-5.68-5.67-11.01-11-16.5-16.5c5.13,0,10.23-0.03,15.34,0.05c0.39,0.01,1.11,0.72,1.11,1.12
	C16.59,59.61,16.57,64.65,16.57,69.9z"/>
</svg>
