<?xml version="1.0" encoding="utf-8"?>
<!-- Generator: Adobe Illustrator 23.0.6, SVG Export Plug-In . SVG Version: 6.00 Build 0)  -->
<svg version="1.1" id="Layer_1" xmlns="http://www.w3.org/2000/svg" xmlns:xlink="http://www.w3.org/1999/xlink" x="0px" y="0px"
	 viewBox="0 0 792 612" style="enable-background:new 0 0 792 612;" xml:space="preserve">
<style type="text/css">
	.st0{fill:#F7D72A;}
	.st1{fill:#579C5F;}
	.st2{fill:#FFFFFF;}
</style>
<path class="st0" d="M392.94,82.05l-92.53-15.46l15.67,16.87c-57.75,24.37-103.66,71.44-126.47,129.98l31.19,10.13
	c18.91-47.22,55.37-85.56,101.27-106.96l-6.02,19.2L392.94,82.05z"/>
<path class="st1" d="M208.05,321.45l16.42,11.66l-27.4-89.73l-43.27,83.24l20.9-9.7c5.38,64.48,37.21,121.56,84.6,160.31
	l19.26-26.52C240.41,418.93,214.28,373.21,208.05,321.45z"/>
<path class="st2" d="M531.68,492.62l-19.28-26.52c-30.81,19.5-67.29,30.81-106.36,30.81c-13.13,0-25.96-1.31-38.39-3.74l16.19-12.04
	l-93.8-1.65l65.81,66.86l-2.77-22.83c17.02,3.99,34.74,6.13,52.96,6.13C452.3,529.63,495.44,516.03,531.68,492.62z"/>
<path class="st0" d="M638.21,297.46c0-20.45-2.67-40.29-7.66-59.2l-31.19,10.14c3.99,15.7,6.11,32.14,6.11,49.06
	c0,35.1-9.15,68.1-25.14,96.78l-6.34-18.92l-30.68,88.66l83.99-41.81l-22.73-4.49C625.9,382.6,638.21,341.45,638.21,297.46z"/>
<path class="st1" d="M606.9,218.41l-14.03-92.76l-11.2,20.18c-39.93-46.19-97.73-76.54-162.55-80.16v32.8
	c52.36,3.41,99.25,27.12,132.91,63.31l-20.11,0.24L606.9,218.41z"/>
</svg>
