<?xml version="1.0" encoding="utf-8"?>
<!-- Generator: Adobe Illustrator 23.0.6, SVG Export Plug-In . SVG Version: 6.00 Build 0)  -->
<svg version="1.1" id="Layer_1" xmlns="http://www.w3.org/2000/svg" xmlns:xlink="http://www.w3.org/1999/xlink" x="0px" y="0px"
	 viewBox="0 0 792 612" style="enable-background:new 0 0 792 612;" xml:space="preserve">
<style type="text/css">
	.st0{fill:#F7D72A;}
	.st1{fill:#579C5F;}
	.st2{fill:#FFFFFF;}
	.st3{font-family:'Comfortaa';}
	.st4{font-size:23.7481px;}
</style>
<path class="st0" d="M398.63,82.87l-83.91-14.02l14.21,15.3c-52.37,22.1-94,64.78-114.69,117.87l28.29,9.18
	c17.14-42.82,50.22-77.59,91.84-96.99l-5.46,17.41L398.63,82.87z"/>
<path class="st1" d="M230.95,299.97l14.89,10.58l-24.85-81.37l-39.24,75.49l18.95-8.8c4.88,58.48,33.75,110.24,76.72,145.38
	l17.47-24.05C260.31,388.37,236.61,346.91,230.95,299.97z"/>
<path class="st2" d="M524.44,455.19l-17.48-24.05c-27.94,17.68-61.02,27.94-96.46,27.94c-11.91,0-23.54-1.18-34.81-3.39l14.68-10.91
	l-85.07-1.5l59.68,60.64l-2.51-20.7c15.43,3.62,31.51,5.56,48.03,5.56C452.45,488.76,491.57,476.42,524.44,455.19z"/>
<path class="st0" d="M621.05,278.22c0-18.55-2.42-36.54-6.95-53.68l-28.28,9.19c3.62,14.24,5.54,29.14,5.54,44.49
	c0,31.83-8.29,61.76-22.8,87.77l-5.75-17.15l-27.83,80.4l76.16-37.91l-20.62-4.07C609.88,355.43,621.05,318.1,621.05,278.22z"/>
<path class="st1" d="M592.66,206.53l-12.72-84.12l-10.16,18.3c-36.21-41.89-88.62-69.41-147.41-72.7v29.74
	c47.48,3.09,90.01,24.59,120.53,57.41l-18.23,0.21L592.66,206.53z"/>
<text transform="matrix(1 0 0 1 198.1475 110.5096)" class="st2 st3 st4">Run</text>
<text transform="matrix(1 0 0 1 367.5887 538.9066)" class="st2 st3 st4">Evaluate</text>
<text transform="matrix(1 0 0 1 568.7344 110.5096)" class="st2 st3 st4">Plan</text>
<text transform="matrix(1 0 0 1 630.4502 357.0862)" class="st2 st3 st4">Build</text>
<text transform="matrix(1 0 0 1 111.8037 357.0862)" class="st2 st3 st4">Monitor</text>
</svg>
