<?xml version="1.0" encoding="utf-8"?>
<!-- Generator: Adobe Illustrator 23.0.4, SVG Export Plug-In . SVG Version: 6.00 Build 0)  -->
<svg version="1.1" id="Layer_1" xmlns="http://www.w3.org/2000/svg" xmlns:xlink="http://www.w3.org/1999/xlink" x="0px" y="0px"
	 viewBox="0 0 500 87.88" style="enable-background:new 0 0 500 87.88;" xml:space="preserve">
<style type="text/css">
	.st0{fill:#132631;}
	.st1{fill:#F9D62A;}
	.st2{fill:#5D9C5F;}
</style>
<path class="st0" d="M89.77,68.57c-0.5-0.5-0.75-1.14-0.75-1.91v-64c0-0.77,0.25-1.41,0.75-1.91S90.91,0,91.68,0h42.7
	c0.71,0,1.33,0.25,1.86,0.76c0.53,0.5,0.8,1.14,0.8,1.91c0,0.71-0.27,1.33-0.8,1.86c-0.53,0.53-1.15,0.8-1.86,0.8H94.34v26.63h29.38
	c0.77,0,1.41,0.25,1.91,0.75c0.5,0.5,0.75,1.14,0.75,1.91c0,0.77-0.25,1.42-0.75,1.95c-0.5,0.53-1.14,0.8-1.91,0.8H94.34v29.29
	c0,0.77-0.25,1.41-0.75,1.91s-1.14,0.75-1.91,0.75C90.91,69.33,90.27,69.08,89.77,68.57z"/>
<path class="st0" d="M183.42,23.39c3.4,2.04,6.05,4.87,7.94,8.48c1.89,3.61,2.84,7.72,2.84,12.34c0,0.77-0.24,1.38-0.71,1.82
	c-0.47,0.44-1.1,0.67-1.86,0.67h-37.19c0.18,3.49,1.1,6.61,2.75,9.36c1.66,2.75,3.87,4.9,6.66,6.43c2.78,1.54,5.89,2.31,9.32,2.31
	c2.31,0,4.63-0.4,6.97-1.2c2.34-0.8,4.19-1.85,5.55-3.15c0.59-0.47,1.21-0.71,1.86-0.71c0.65,0,1.18,0.18,1.6,0.53
	c0.65,0.53,0.98,1.15,0.98,1.86c0,0.59-0.27,1.15-0.8,1.69c-1.89,1.72-4.36,3.14-7.41,4.26c-3.05,1.12-5.96,1.69-8.74,1.69
	c-4.68,0-8.83-1.05-12.47-3.15c-3.64-2.1-6.5-5.03-8.56-8.79c-2.07-3.76-3.11-8-3.11-12.74c0-4.79,0.96-9.07,2.89-12.83
	c1.92-3.76,4.61-6.69,8.08-8.79c3.46-2.1,7.41-3.15,11.85-3.15C176.15,20.33,180.01,21.35,183.42,23.39z M160.16,29.92
	c-3.17,3.08-5.05,7.13-5.64,12.16h34.53c-0.41-5.03-2.19-9.08-5.33-12.16c-3.14-3.08-7.1-4.62-11.89-4.62
	C167.22,25.3,163.32,26.84,160.16,29.92z"/>
<path class="st0" d="M252.88,0.71c0.47,0.47,0.71,1.12,0.71,1.95v42.7v0.18c-0.06,4.56-1.18,8.7-3.37,12.43
	c-2.19,3.73-5.16,6.64-8.92,8.74s-7.91,3.15-12.47,3.15c-4.68,0-8.91-1.08-12.69-3.24c-3.79-2.16-6.76-5.13-8.92-8.92
	c-2.16-3.79-3.24-8.02-3.24-12.69c0-4.61,1.08-8.82,3.24-12.6c2.16-3.79,5.13-6.76,8.92-8.92c3.79-2.16,8.02-3.24,12.69-3.24
	c4.2,0,8,0.9,11.41,2.71c3.4,1.81,6.08,4.28,8.03,7.41V2.66c0-0.83,0.25-1.48,0.75-1.95c0.5-0.47,1.14-0.71,1.91-0.71
	C251.75,0,252.4,0.24,252.88,0.71z M238.76,62.27c2.96-1.75,5.28-4.13,6.97-7.15c1.69-3.02,2.53-6.39,2.53-10.12
	c0-3.73-0.84-7.1-2.53-10.12c-1.69-3.02-4.01-5.38-6.97-7.1c-2.96-1.71-6.27-2.57-9.94-2.57c-3.67,0-6.98,0.86-9.94,2.57
	c-2.96,1.72-5.3,4.08-7.01,7.1c-1.72,3.02-2.57,6.39-2.57,10.12c0,3.73,0.86,7.1,2.57,10.12c1.71,3.02,4.05,5.4,7.01,7.15
	c2.96,1.75,6.27,2.62,9.94,2.62C232.49,64.89,235.8,64.02,238.76,62.27z"/>
<path class="st0" d="M278.71,68.04c-3.26-1.21-5.95-3.06-8.08-5.55c-0.41-0.47-0.62-1.01-0.62-1.6c0-0.83,0.38-1.51,1.15-2.04
	c0.35-0.29,0.86-0.44,1.51-0.44c0.83,0,1.51,0.33,2.04,0.98c2.96,3.61,7.72,5.41,14.29,5.41c4.68,0,8.12-0.83,10.34-2.49
	c2.22-1.66,3.33-3.79,3.33-6.39c0-4.68-4.53-7.66-13.58-8.97c-5.74-0.83-10.08-2.4-13.01-4.7c-2.93-2.31-4.39-5.09-4.39-8.34
	c0-4.32,1.58-7.68,4.75-10.07s7.29-3.59,12.38-3.59c7.45,0,13.11,2.66,16.95,7.99c0.36,0.41,0.53,0.92,0.53,1.51
	c0,0.83-0.48,1.51-1.42,2.04c-0.59,0.24-1.04,0.36-1.33,0.36c-0.89,0-1.63-0.38-2.22-1.15c-3.02-3.85-7.25-5.77-12.69-5.77
	c-3.61,0-6.48,0.79-8.61,2.35c-2.13,1.57-3.2,3.51-3.2,5.82c0,2.37,1.02,4.26,3.06,5.68c2.04,1.42,5.46,2.48,10.25,3.2
	c6.27,0.89,10.79,2.56,13.54,5.01c2.75,2.46,4.13,5.43,4.13,8.92c0,2.72-0.88,5.12-2.62,7.19c-1.75,2.07-4.07,3.67-6.97,4.79
	c-2.9,1.13-6.07,1.69-9.5,1.69C285.31,69.86,281.96,69.25,278.71,68.04z"/>
<path class="st0" d="M323.89,9.36c-0.77-0.8-1.15-1.79-1.15-2.97c0-1.3,0.41-2.31,1.24-3.02c0.83-0.71,1.8-1.06,2.93-1.06
	s2.09,0.36,2.89,1.06c0.8,0.71,1.2,1.72,1.2,3.02c0,1.18-0.4,2.17-1.2,2.97c-0.8,0.8-1.79,1.2-2.97,1.2
	C325.63,10.56,324.66,10.16,323.89,9.36z M325,68.57c-0.5-0.5-0.75-1.14-0.75-1.91V23.44c0-0.83,0.25-1.48,0.75-1.95
	c0.5-0.47,1.14-0.71,1.91-0.71c0.83,0,1.48,0.24,1.95,0.71s0.71,1.12,0.71,1.95v43.23c0,0.77-0.24,1.41-0.71,1.91
	s-1.12,0.75-1.95,0.75C326.14,69.33,325.5,69.08,325,68.57z"/>
<path class="st0" d="M385,23.44c3.76,2.13,6.69,5.07,8.79,8.83c2.1,3.76,3.15,8.03,3.15,12.83v17.4c0,4.74-1.06,9.04-3.2,12.92
	c-2.13,3.87-5.06,6.92-8.79,9.14c-3.73,2.22-7.87,3.33-12.43,3.33c-4.68,0-8.77-0.87-12.29-2.62c-3.52-1.75-6.47-4.13-8.83-7.14
	c-0.47-0.59-0.71-1.18-0.71-1.78c0-0.71,0.3-1.27,0.89-1.69c0.47-0.35,1.01-0.53,1.6-0.53c0.95,0,1.71,0.38,2.31,1.15
	c1.95,2.37,4.36,4.23,7.24,5.59c2.87,1.36,6.14,2.04,9.81,2.04c3.61,0,6.86-0.89,9.77-2.66c2.9-1.78,5.18-4.22,6.83-7.32
	c1.66-3.11,2.49-6.58,2.49-10.43v-3.91c-1.72,3.49-4.28,6.24-7.68,8.26c-3.4,2.01-7.32,3.02-11.76,3.02
	c-4.79,0-9.07-1.05-12.83-3.15c-3.76-2.1-6.7-5.03-8.83-8.79c-2.13-3.76-3.2-8.03-3.2-12.83c0-4.73,1.1-9,3.28-12.78
	s5.18-6.75,8.96-8.88c3.79-2.13,7.99-3.2,12.61-3.2C376.97,20.24,381.25,21.3,385,23.44z M382.21,62.36
	c2.96-1.69,5.27-4.02,6.92-7.01c1.66-2.99,2.49-6.4,2.49-10.25c0-3.85-0.83-7.28-2.49-10.3c-1.66-3.02-3.96-5.37-6.92-7.06
	c-2.96-1.69-6.3-2.53-10.03-2.53c-3.79,0-7.16,0.84-10.12,2.53c-2.96,1.69-5.27,4.04-6.92,7.06c-1.66,3.02-2.48,6.45-2.48,10.3
	c0,3.85,0.83,7.26,2.48,10.25c1.66,2.99,3.96,5.33,6.92,7.01c2.96,1.69,6.33,2.53,10.12,2.53
	C375.91,64.89,379.25,64.04,382.21,62.36z"/>
<path class="st0" d="M446.7,22.81c3.4,1.78,6.07,4.37,7.99,7.77c1.92,3.4,2.89,7.47,2.89,12.21v23.88c0,0.77-0.25,1.41-0.76,1.91
	c-0.5,0.5-1.14,0.75-1.91,0.75s-1.41-0.25-1.91-0.75c-0.5-0.5-0.76-1.14-0.76-1.91V42.79c0-5.62-1.58-9.91-4.75-12.87
	c-3.17-2.96-7.29-4.44-12.38-4.44c-3.14,0-5.99,0.61-8.57,1.82c-2.57,1.21-4.6,2.9-6.08,5.06c-1.48,2.16-2.22,4.54-2.22,7.15v27.16
	c0,0.77-0.24,1.41-0.71,1.91s-1.12,0.75-1.95,0.75c-0.77,0-1.41-0.25-1.91-0.75c-0.5-0.5-0.76-1.14-0.76-1.91v-64
	c0-0.83,0.25-1.48,0.76-1.95c0.5-0.47,1.14-0.71,1.91-0.71c0.83,0,1.48,0.24,1.95,0.71c0.47,0.47,0.71,1.12,0.71,1.95v25.39
	c2.01-2.48,4.47-4.42,7.37-5.81c2.9-1.39,6.07-2.09,9.5-2.09C439.43,20.15,443.29,21.04,446.7,22.81z"/>
<path class="st0" d="M499.24,64.67c0.5,0.5,0.76,1.17,0.76,2c0,0.77-0.25,1.41-0.76,1.91c-0.5,0.5-1.17,0.75-2,0.75h-2.04
	c-3.26,0-6.16-0.74-8.7-2.22c-2.54-1.48-4.53-3.51-5.95-6.08c-1.42-2.57-2.13-5.49-2.13-8.74V27.34h-6.92
	c-0.71,0-1.29-0.22-1.73-0.67s-0.67-1.02-0.67-1.73s0.22-1.29,0.67-1.73s1.02-0.67,1.73-0.67h6.92V8.08c0-0.83,0.25-1.49,0.75-2
	s1.14-0.75,1.91-0.75c0.83,0,1.49,0.25,2,0.75c0.5,0.5,0.76,1.17,0.76,2v14.47h11.72c0.71,0,1.29,0.22,1.73,0.67
	c0.44,0.44,0.66,1.02,0.66,1.73s-0.22,1.29-0.66,1.73c-0.44,0.44-1.02,0.67-1.73,0.67h-11.72v24.94c0,3.43,1.06,6.23,3.19,8.39
	c2.13,2.16,4.88,3.24,8.26,3.24h1.95C498.08,63.91,498.74,64.16,499.24,64.67z"/>
<path class="st1" d="M26.69-0.27c5.23,0,10.61,0,16.21,0c0,5.55,0,11.04,0,16.2C37.61,10.64,32.16,5.19,26.69-0.27z"/>
<path class="st2" d="M43.01,26.27c0,5.6,0,11.04,0,16.32c-5.36-5.47-10.79-11.02-15.98-16.32C31.89,26.27,37.38,26.27,43.01,26.27z"
	/>
<path class="st2" d="M0.29,26.11c4.81,0,9.87-0.03,14.94,0.05c0.47,0.01,1.33,0.74,1.33,1.14c0.09,5.14,0.06,10.27,0.06,15.14
	C11.21,37.03,5.78,31.6,0.29,26.11z"/>
<path class="st1" d="M0.53-0.33c4.53,0,9.52-0.04,14.51,0.06c0.5,0.01,1.4,0.84,1.41,1.3c0.1,4.97,0.06,9.95,0.06,14.62
	C11.16,10.3,5.79,4.93,0.53-0.33z"/>
<path class="st1" d="M69.29,15.9C63.87,10.5,58.53,5.17,53.1-0.24c5.29,0,10.61,0,16.19,0C69.29,5.11,69.29,10.54,69.29,15.9z"/>
<path class="st0" d="M16.5,69.32C10.83,63.65,5.49,58.31,0,52.82c5.13,0,10.23-0.03,15.34,0.05c0.39,0.01,1.11,0.72,1.11,1.12
	C16.53,59.03,16.5,64.07,16.5,69.32z"/>
</svg>
